<svg xmlns="http://www.w3.org/2000/svg" width="222.997mm" height="81.935mm" viewBox="0 0 632.117 232.258">
  <g>
    <path d="M0,92.5a153.32,153.32,0,0,1,41.7-6.2c33,0,56.6,14.6,56.6,47.9s-23,49.5-53.7,51a124.677,124.677,0,0,1-18-.9l.7,45.2c-9.3.4-16.2,1.1-25.3,1.5Zm33.3,71.4c18.6,0,38.1-5.1,40.4-28.4,2-16.8-10.9-26.2-29.7-26.8a86.36,86.36,0,0,0-18.8,1.6l.9,53.4C28.6,163.9,31,163.9,33.3,163.9Z" transform="translate(0 0.058)"/>
    <path d="M104.5,122.9l19.8-1.5,2,14.2c7.6-11.1,18-16.6,29.1-16.6a30.525,30.525,0,0,1,6,.6c.4,8.6.7,16.9,1.1,25.5a26.144,26.144,0,0,0-6.6-.9c-14.8,0-25.1,13.5-26.6,29.3l2,54.6H106Z" transform="translate(0 0.058)"/>
    <path d="M222.4,120.9c8.6.4,14.9.7,23.5,1.1l.6,14.9c5.6-10,15.3-18.2,27.7-18.2a18.287,18.287,0,0,1,3.3.2c19.7,2.4,29.1,15.8,29.1,45,.2,16.6-1.8,38.3-6,66.5-8-.9-16-1.6-24-2.6,3.1-24.9,6-46.4,5.8-61.7s-3.5-24.6-12.6-25.1c-17.1,0-22.6,21.7-23.5,35.3-2.2,18.4-1.1,34.6-1.6,51.9h-24Z" transform="translate(0 0.058)"/>
    <path d="M355,191.6c0,10,3.5,15.1,14,17.7-2.4,7.6-4.5,15.3-6.9,22.9-24.4-3.3-33.1-20.4-33.1-39V147l-13.7,1.5-2.2-23.9,17.9-2.2,3.5-21.1c6.6-.6,13.1-.9,19.7-1.5,0,6.6.2,13.3.2,19.8l18.2-2.4,2.4,24.2-20.4,2.4Z" transform="translate(0 0.058)"/>
    <path d="M443.1,198.1l15.7,14.8c-8.6,11.1-20.9,18.8-38.6,18.8-29.9,0-44.1-28.4-43.3-57,.7-28.4,16.8-57,47.7-57,35.7,0,45.5,36.6,37.1,67-20.4-.2-41-.2-61.4-.4.5,14,7.8,25.1,19.7,25.1C427.7,209.4,433.1,207.6,443.1,198.1Zm-2.3-34.2c0-11.3-5.3-23.1-17.5-23.1-10.2,0-18.9,8.2-20.8,21.3Z" transform="translate(0 0.058)"/>
    <path d="M617.5,147.3c-7.5-4.6-14.9-6.7-20.9-6.7s-10.4,2.4-11.8,6.7c-5.8,18.2,48.4,14,47.3,51.4-.9,22.2-19.7,32.4-40.1,32.4a29.537,29.537,0,0,1-4.2-.2c-14.6-.9-29.7-6.9-39.2-17.5L561,194.3c7.5,8,18.4,13.3,29.5,13.3,8.9,0,16-3.5,16.6-8.7,1.3-10.4-16.6-14.4-30.6-22.9-29.1-17.5-18.4-57,19.5-57,10.7,0,22.6,2.7,32,8.2Z" transform="translate(0 0.058)"/>
    <path d="M529.4,153.5c-7.9-5.2-11.1-7.1-17.9-9.1-5.9-1.8-10.6-.3-12.1,4-5.8,18.2,48.7,12.9,47.6,50.3-.9,22.2-19.7,32.4-40.1,32.4a29.537,29.537,0,0,1-4.2-.2c-14.6-.9-25.2-8.4-35.4-17.5l12.4-19.1c8.6,7.4,14.7,12,25.7,13.3,8.9,1,16-3.5,16.6-8.7,1.3-10.4-16.6-14.4-30.6-22.9-29.1-17.5-18.4-56.7,19.5-53.2,10.7,1,17.7,4.8,28.3,12Z" transform="translate(0 0.058)"/>
  </g>
  <g>
    <path d="M209.6,164.8l.5,63.9c-8.9.2-17.7.4-26.6.5l.2-66.9Z" transform="translate(0 0.058)"/>
    <path d="M209.2,131.9l.4,32.9-25.9-2.4V128.9Z" transform="translate(0 0.058)" fill="#ed6bb8"/>
    <polygon points="189.4 33.058 206.9 57.058 234.6 67.858 210.6 85.358 199.8 113.058 182.3 89.058 154.6 78.258 178.6 60.758 189.4 33.058" fill="#ed6bb8"/>
    <path d="M184.8,15.3,180.1,4.1c-.4-1.1-.3-2,.7-2.5L184.6.2c1.4-.6,1.9-.2,2,1.7l.9,12.1C187.6,16,185.7,17.3,184.8,15.3Z" transform="translate(0 0.058)" fill="#ed6bb8"/>
    <path d="M227,31l4.5-7.3c.9-1.3,1.8-2.5,3.2-1.9l2.6.8a2.188,2.188,0,0,1,.7,3.7l-7.1,6.4A2.271,2.271,0,0,1,227,31Z" transform="translate(0 0.058)" fill="#ed6bb8"/>
    <path d="M148.5,39.7l-6.6-3.6c-1.7-1-2.2-2-1.6-3.4l1-2c.7-1.5,2.3-1.7,3.6-.4l5.6,5.6C153.7,38.8,152.1,41.6,148.5,39.7Z" transform="translate(0 0.058)" fill="#ed6bb8"/>
    <path d="M135.9,79.5,127.4,82c-1.1.3-1.5-.4-1.7-1.3l-.5-4.5c.1-.9.9-1.4,2-1.2l8.9,2A1.322,1.322,0,0,1,135.9,79.5Z" transform="translate(0 0.058)" fill="#ed6bb8"/>
    <path d="M253.5,65.2l10.4.8c1.1.1,1.8-.6,1.5-1.6l-.9-4.5c-.4-.9-1.2-1.1-2.7-.6l-9.4,3.6C251.4,63.6,252.1,65.1,253.5,65.2Z" transform="translate(0 0.058)" fill="#ed6bb8"/>
  </g>
</svg>
